<svg id="Capa_1" data-name="Capa 1" xmlns="http://www.w3.org/2000/svg" viewBox="0 0 100 100"><defs><style>.cls-1{fill:#1d1d1b;}.cls-2{fill:#fff;}</style></defs><rect class="cls-1" width="100" height="100"/><path class="cls-2" d="M18.26,35.54a31.72,31.72,0,0,1,63-5.25c1.23,7.61-.19,14.91-2.79,22-3.47,9.49-9,17.74-15.57,25.34a100.53,100.53,0,0,1-12.13,12c-.51.41-.87.67-1.53.11C37.69,79.79,28.06,68.31,22.14,54A48.34,48.34,0,0,1,18.26,35.54Zm3.95,1.05a38.65,38.65,0,0,0,2.05,11.72c4.81,14.6,14.14,26.08,25.19,36.38.49.46.76.31,1.16-.08,1.63-1.59,3.33-3.11,4.91-4.75C63.3,71.81,70,63,74.2,52.5c2.66-6.61,4.22-13.43,3.34-20.62a27.78,27.78,0,0,0-31.23-24C32.35,9.72,22,21.74,22.21,36.59Z"/><path class="cls-2" d="M63.11,83.27c.8-.91,1.53-1.72,2.21-2.55a.79.79,0,0,1,1-.22,20.16,20.16,0,0,1,6.66,3c3.07,2.32,3.07,5.72,0,8-2.89,2.13-6.28,3-9.72,3.67a69.12,69.12,0,0,1-29.44-.7,18.85,18.85,0,0,1-6.36-2.71c-3.56-2.48-3.54-6.07,0-8.54a21.19,21.19,0,0,1,6.24-2.68.79.79,0,0,1,.94.22c.71.82,1.45,1.61,2.27,2.53a25.8,25.8,0,0,0-6.63,2.26c-.83.47-2,.9-2,1.91s1.16,1.54,2,2c3.7,2,7.77,2.65,11.86,3.06a67,67,0,0,0,21.56-1,18.9,18.9,0,0,0,6.82-2.61c1.62-1.11,1.61-1.8,0-2.9A22.56,22.56,0,0,0,63.11,83.27Z"/><path class="cls-2" d="M30.4,35.28A19.6,19.6,0,1,1,49.9,55,19.6,19.6,0,0,1,30.4,35.28Zm4,0a15.66,15.66,0,0,0,31.31.41c.12-8.56-6.81-15.88-15.14-16A15.65,15.65,0,0,0,34.35,35.32Z"/></svg>