<svg id="Capa_1" data-name="Capa 1" xmlns="http://www.w3.org/2000/svg" xmlns:xlink="http://www.w3.org/1999/xlink" viewBox="0 0 25 25"><defs><style>.cls-1{fill:url(#Degradado_sin_nombre_25);}.cls-2{fill:url(#Degradado_sin_nombre_25-2);}.cls-3{fill:url(#Degradado_sin_nombre_25-3);}</style><linearGradient id="Degradado_sin_nombre_25" x1="19.31" y1="15.31" x2="5.74" y2="1.74" gradientUnits="userSpaceOnUse"><stop offset="0" stop-color="#ffef26"/><stop offset="0.12" stop-color="#fde12b"/><stop offset="0.34" stop-color="#f8be39"/><stop offset="0.37" stop-color="#f7b93b"/><stop offset="0.45" stop-color="#facd37"/><stop offset="0.56" stop-color="#fee532"/><stop offset="0.64" stop-color="#ffed30"/><stop offset="0.76" stop-color="#fbd535"/><stop offset="0.9" stop-color="#f8c139"/><stop offset="1" stop-color="#f7b93b"/></linearGradient><linearGradient id="Degradado_sin_nombre_25-2" x1="19.28" y1="25.85" x2="5.68" y2="12.25" xlink:href="#Degradado_sin_nombre_25"/><linearGradient id="Degradado_sin_nombre_25-3" x1="18.84" y1="21.63" x2="6.14" y2="8.93" xlink:href="#Degradado_sin_nombre_25"/></defs><path class="cls-1" d="M12.52,11.09H2A.87.87,0,0,1,1,10.17a8.68,8.68,0,0,1,.31-2.64A7.91,7.91,0,0,1,4.22,3.38,7.76,7.76,0,0,1,7.85,1.89a4.37,4.37,0,0,1,.72-.06c2.65,0,5.31,0,8,0A7.1,7.1,0,0,1,20.19,3a7.88,7.88,0,0,1,3.53,4.59A8.08,8.08,0,0,1,24,10.26a.86.86,0,0,1-.9.83Zm0-1.73H22.2c.08,0,.09,0,.09-.1A6.27,6.27,0,0,0,22,7.77a6.16,6.16,0,0,0-5.82-4.22H8.9A6,6,0,0,0,4.63,5.3,6.12,6.12,0,0,0,2.77,9.19c0,.11,0,.17.15.17Z"/><path class="cls-2" d="M12.49,16.81c3.63,0,7.26,0,10.9,0a.92.92,0,0,1,1,1c0,.59,0,1.19,0,1.78a4.11,4.11,0,0,1-4.11,3.61c-5.18,0-10.36,0-15.54,0A4.09,4.09,0,0,1,.75,20.12a4.21,4.21,0,0,1-.12-1V17.73a.85.85,0,0,1,.91-.92h11Zm0,1.73h-10c-.13,0-.19,0-.17.16s0,.28,0,.42a2.34,2.34,0,0,0,2.37,2.31h15.5a2.3,2.3,0,0,0,2.12-1.24,2.59,2.59,0,0,0,.28-1.42c0-.24.05-.23-.22-.23Z"/><path class="cls-3" d="M.62,15.28v-.76c0-.06,0-.11.09-.1a1.75,1.75,0,0,0,1.41-.71A3.52,3.52,0,0,1,4,12.58a3.23,3.23,0,0,1,2.76.61c.36.3.67.66,1,.94a1.48,1.48,0,0,0,1.86-.07,11.17,11.17,0,0,1,1.15-1,3.11,3.11,0,0,1,1.65-.53,3.16,3.16,0,0,1,1.85.46,5.87,5.87,0,0,1,1.1.95,1.55,1.55,0,0,0,1.82.35,4.26,4.26,0,0,0,.88-.76,3.27,3.27,0,0,1,4.45-.27c.34.29.63.62,1,.9a1.31,1.31,0,0,0,.74.27c.1,0,.13,0,.13.14,0,.49,0,1,0,1.48,0,.09,0,.11-.12.12a2.89,2.89,0,0,1-1.93-.7c-.35-.28-.63-.62-1-.9a1.48,1.48,0,0,0-1.88.07,10.3,10.3,0,0,1-1.17,1,2.69,2.69,0,0,1-1.55.51,3.68,3.68,0,0,1-1.4-.18A4.12,4.12,0,0,1,14,15.05a3.22,3.22,0,0,0-.75-.63,1.51,1.51,0,0,0-1.78.29,6.7,6.7,0,0,1-1.18,1,2.65,2.65,0,0,1-1.45.43A3.71,3.71,0,0,1,7.58,16a3.87,3.87,0,0,1-1.36-.89,4.12,4.12,0,0,0-.77-.67,1.5,1.5,0,0,0-1.78.21,9.74,9.74,0,0,1-1.13,1,2.84,2.84,0,0,1-1.83.49c-.08,0-.09,0-.09-.1C.63,15.79.62,15.53.62,15.28Z"/></svg>