<svg id="Capa_1" data-name="Capa 1" xmlns="http://www.w3.org/2000/svg" viewBox="0 0 80 80"><defs><style>.cls-1{fill:#080909;}.cls-2{fill:#060707;}.cls-3{fill:#080809;}</style></defs><path class="cls-1" d="M40.07,35.36H5.26a2.87,2.87,0,0,1-3.09-3,28,28,0,0,1,1-8.69A26.18,26.18,0,0,1,24.68,5a15.56,15.56,0,0,1,2.37-.18c8.74,0,17.48,0,26.23,0A23.2,23.2,0,0,1,65.34,8.54,25.87,25.87,0,0,1,77,23.66a27.44,27.44,0,0,1,1,9,2.87,2.87,0,0,1-3,2.74h-35Zm0-5.71H72c.25,0,.3-.09.28-.33a21.07,21.07,0,0,0-1-4.92,20.36,20.36,0,0,0-19.2-13.89q-12-.07-23.91,0a19.72,19.72,0,0,0-14.06,5.76A20.11,20.11,0,0,0,7.94,29.08c0,.39,0,.58.49.58Q24.27,29.63,40.09,29.65Z"/><path class="cls-2" d="M40,54.21c12,0,23.94,0,35.92,0a3,3,0,0,1,3.18,3.21c-.08,2,.14,3.92-.12,5.86A13.52,13.52,0,0,1,65.4,75.16q-25.59,0-51.18,0A13.33,13.33,0,0,1,.88,61.81c0-1.53,0-3.06,0-4.59a2.79,2.79,0,0,1,3-3H40Zm0,5.69H7.1c-.42,0-.6.08-.56.54s0,.92,0,1.38a7.7,7.7,0,0,0,7.8,7.6c1.9,0,3.8,0,5.7,0q22.7,0,45.39,0a7.54,7.54,0,0,0,7-4.06,8.69,8.69,0,0,0,.94-4.7c0-.79.15-.75-.72-.75Z"/><path class="cls-3" d="M.87,49.15V46.66c0-.19,0-.37.28-.35,2,.18,3.36-1,4.65-2.32,1.72-1.74,3.59-3.28,6.07-3.73a10.62,10.62,0,0,1,9.07,2c1.21,1,2.21,2.17,3.44,3.11a4.92,4.92,0,0,0,6.12-.23,35.55,35.55,0,0,1,3.79-3.36A10.17,10.17,0,0,1,39.73,40a10.54,10.54,0,0,1,6.11,1.52,20.06,20.06,0,0,1,3.62,3.13,5.08,5.08,0,0,0,6,1.15,13.72,13.72,0,0,0,2.93-2.5,10.43,10.43,0,0,1,5.93-3.19A10.57,10.57,0,0,1,73,42.42c1.12,1,2.09,2.07,3.27,3a4.09,4.09,0,0,0,2.43.91c.34,0,.44.12.43.45,0,1.63,0,3.25,0,4.87,0,.32-.09.39-.4.4a9.38,9.38,0,0,1-6.34-2.31c-1.14-.91-2.07-2-3.22-2.94A4.91,4.91,0,0,0,63,47a37.49,37.49,0,0,1-3.85,3.39A9,9,0,0,1,54,52a12.15,12.15,0,0,1-4.63-.57,14.09,14.09,0,0,1-4.36-3,11.51,11.51,0,0,0-2.47-2.1,5,5,0,0,0-5.86,1A22.39,22.39,0,0,1,32.8,50.6,8.71,8.71,0,0,1,28,52a13.05,13.05,0,0,1-4.21-.44,12.7,12.7,0,0,1-4.47-3,15.6,15.6,0,0,0-2.53-2.21,5,5,0,0,0-5.89.71A29.61,29.61,0,0,1,7.18,50.4a9.34,9.34,0,0,1-6,1.62c-.26,0-.3-.1-.29-.33C.88,50.85.87,50,.87,49.15Z"/></svg>