<svg id="Capa_1" data-name="Capa 1" xmlns="http://www.w3.org/2000/svg" viewBox="0 0 100 100"><defs><style>.cls-1{fill:#1d1d1b;}.cls-2{fill:#fff;}</style></defs><rect class="cls-1" x="-0.54" width="100.54" height="100"/><path class="cls-2" d="M55.55,79.16q0,10.25,0,20.5c0,.27-.06.34-.33.34q-8,0-16,0c-.26,0-.32-.07-.32-.33q0-20.51,0-41c0-.3-.07-.37-.36-.36H30.83c-.21,0-.28,0-.28-.27V41.9c0-.23.07-.27.28-.27h7.69c.23,0,.3,0,.3-.29,0-2.63-.06-5.27,0-7.91A18.5,18.5,0,0,1,42,23.18a14.55,14.55,0,0,1,8.52-5.81,21.07,21.07,0,0,1,5.48-.7H69c.2,0,.25,0,.25.25V30.75c0,.23-.1.23-.26.23q-4.51,0-9,0a3.6,3.6,0,0,0-2.85,1.15,3.88,3.88,0,0,0-.9,2.43c0,.45,0,.91,0,1.37,0,1.81,0,3.62,0,5.43,0,.23.07.28.28.28H69.14c.29,0,.33.08.31.35-.24,2.49-.46,5-.69,7.47L68,57.15A8.5,8.5,0,0,0,68,58c0,.24-.08.3-.31.3H57.29c-.49,0-1,0-1.48,0-.22,0-.26,0-.26.26,0,2.54,0,5.07,0,7.6Z"/></svg>