<svg id="Capa_1" data-name="Capa 1" xmlns="http://www.w3.org/2000/svg" viewBox="0 0 100 100"><defs><style>.cls-1{fill:#1d1d1b;}.cls-2{fill:#fff;}</style></defs><rect class="cls-1" width="100" height="100"/><path class="cls-2" d="M49.46,3.09c15.82,0,28.87,11.2,31,26.26,1.12,8.07-.58,15.77-3.62,23.21C72.4,63.32,65.57,72.45,57.59,80.8c-2.19,2.29-4.48,4.49-6.89,6.56-.44.38-.73.66-1.33.12C37.73,77,27.93,65.25,22.35,50.42a44.16,44.16,0,0,1-3-19.71A30.79,30.79,0,0,1,42.44,4,27.86,27.86,0,0,1,49.46,3.09ZM50,15.33A18.52,18.52,0,1,0,68.46,34,18.52,18.52,0,0,0,50,15.33Z"/><path class="cls-2" d="M61.13,82.87c.86-.93,1.63-1.75,2.37-2.6a1,1,0,0,1,1.09-.34,26.13,26.13,0,0,1,8.57,3.24c2.7,1.79,3.57,4.12,2.46,6.42a6.91,6.91,0,0,1-2.7,2.79,28.78,28.78,0,0,1-11,3.58,73.67,73.67,0,0,1-26.36-.48,24.55,24.55,0,0,1-8.71-3.24c-2.5-1.64-3.49-3.78-2.74-5.91a6.51,6.51,0,0,1,2.81-3.21,26.12,26.12,0,0,1,8.46-3.19,1.05,1.05,0,0,1,1.17.42c.7.83,1.46,1.6,2.29,2.5A52,52,0,0,0,32,84.6a12.28,12.28,0,0,0-3.92,2.1c-.8.69-.81,1.3,0,2a14,14,0,0,0,5.59,2.64c7.29,2,14.75,2.26,22.24,1.76a43.33,43.33,0,0,0,12.72-2.55,11.89,11.89,0,0,0,2.76-1.44c1.47-1.09,1.49-1.71,0-2.77a20.08,20.08,0,0,0-7.15-2.8C63.29,83.29,62.31,83.12,61.13,82.87Z"/></svg>