<svg id="Capa_1" data-name="Capa 1" xmlns="http://www.w3.org/2000/svg" viewBox="0 0 100 100"><defs><style>.cls-1{fill:#1d1d1b;}.cls-2{fill:#fff;}</style></defs><rect class="cls-1" x="-0.54" width="100.54" height="100"/><path class="cls-2" d="M49.66,87.58c-5.46,0-10.93.22-16.37,0-12.19-.61-20-8.17-20.66-20.27a304.42,304.42,0,0,1,0-34.31c.66-11.47,7.8-18.92,19.3-19.86a210.48,210.48,0,0,1,36.81.09C79,14.13,86,21.09,87,31.29a205.49,205.49,0,0,1,.11,36.79c-1,12-8.66,18.91-20.73,19.47-5.55.25-11.12,0-16.69,0Zm0-6.94v0c5.35,0,10.71.18,16.05,0,9.26-.38,14.18-5,14.68-14.25a304.49,304.49,0,0,0,0-32.4c-.45-8.93-5.11-13.72-14-14.23a286.76,286.76,0,0,0-33,0c-8.75.51-13.38,5.41-13.86,14.07a286.59,286.59,0,0,0,0,33c.52,8.48,5.35,13.3,13.81,13.73C38.76,80.86,44.23,80.64,49.68,80.64Z"/><path class="cls-2" d="M50,69.53A19.34,19.34,0,1,1,69.29,50.1,19.26,19.26,0,0,1,50,69.53Zm12.42-19.3a12.47,12.47,0,0,0-24.93,0,12.47,12.47,0,1,0,24.93,0Z"/><path class="cls-2" d="M74.52,30.23a4.47,4.47,0,0,1-4.67,4.44,4.56,4.56,0,0,1-4.38-4.76,4.53,4.53,0,0,1,9,.32Z"/></svg>