<svg id="Capa_1" data-name="Capa 1" xmlns="http://www.w3.org/2000/svg" viewBox="0 0 100 100"><defs><style>.cls-1{fill:#1d1d1b;}.cls-2{fill:#fff;}</style></defs><rect class="cls-1" x="-0.54" width="100.54" height="100"/><path class="cls-2" d="M10.91,50.31A38.17,38.17,0,0,1,19,25,38.72,38.72,0,0,1,45.53,9.81a9.91,9.91,0,0,1,2.92-.3,12.65,12.65,0,0,0,4.59,0,38.26,38.26,0,0,1,19.48,6.35c10,6.6,16,15.83,17.67,27.66a39.55,39.55,0,0,1-30.5,44c-1.06.23-2.13.37-3.2.55-.42-.18-.85-.46-1.14.18h-.2a3,3,0,0,0-1.91,0l1.17.07a5.75,5.75,0,0,1-1.75.17,8.54,8.54,0,0,0-3.83,0A38.57,38.57,0,0,1,35.6,85.56,37,37,0,0,1,32.23,84a1.92,1.92,0,0,0-1.62-.14q-10.17,3.27-20.37,6.49l-.83.23c.87-2.58,1.7-5,2.54-7.5q2.21-6.5,4.43-13a1.35,1.35,0,0,0-.13-1.23,36.93,36.93,0,0,1-4.4-11.24c.06-.1.18-.23.16-.32a33,33,0,0,1-.76-6.58A.36.36,0,0,0,10.91,50.31ZM84.08,45c-.06-.21-.13-.42-.17-.64-2-12.27-8.84-20.88-20.1-26a34.82,34.82,0,0,0-12-2.7l1.17-.1v0H48.31v.08l1.32.07a43.22,43.22,0,0,0-8.74,1.51A33.53,33.53,0,0,0,17.25,46.62,32.46,32.46,0,0,0,23.1,67.76a1.43,1.43,0,0,1,.25,1.47c-.71,1.94-1.37,3.91-2,5.87s-1.25,3.71-1.92,5.71l.5-.15c3.85-1.22,7.71-2.44,11.55-3.69a1.66,1.66,0,0,1,1.58.21,32.15,32.15,0,0,0,5.09,2.61c3.37,1.45,7,1.95,10.52,2.56a14.08,14.08,0,0,0,4.15,0l-1.31-.06c1.64-.26,3.31-.23,4.94-.57C70.08,78.91,79,70.87,83.11,57.53a44.32,44.32,0,0,0,1.16-6.67c.13.24-.08.56.21.84v-5c0-.26,0-.52-.35-.57v-.39c.27-.24.14-.56.16-.84,0-.12-.06-.14-.14,0A.76.76,0,0,0,84.08,45Z"/><path class="cls-2" d="M10.91,50.31a.36.36,0,0,1,.34.38A33,33,0,0,0,12,57.27c0,.09-.1.22-.16.32A33.09,33.09,0,0,1,10.91,50.31Z"/><path class="cls-2" d="M53,9.51a12.65,12.65,0,0,1-4.59,0A37,37,0,0,1,53,9.51Z"/><path class="cls-2" d="M48.83,88.44a8.54,8.54,0,0,1,3.83,0Z"/><path class="cls-2" d="M54.41,88.27l-1.17-.07a3,3,0,0,1,1.91,0Z"/><path class="cls-2" d="M55.35,88.24c.29-.64.72-.36,1.14-.18Z"/><path class="cls-2" d="M84.27,50.86a44.44,44.44,0,0,0-.14-4.76c.35,0,.35.31.35.57v5C84.19,51.42,84.4,51.1,84.27,50.86Z"/><path class="cls-2" d="M51.86,15.64H49.63l-1.32-.07v-.08H53v0Z"/><path class="cls-2" d="M48.64,82.35a14.2,14.2,0,0,1,2.84,0l1.31.06A14.08,14.08,0,0,1,48.64,82.35Z"/><path class="cls-2" d="M84.12,45.71l0-.73a.76.76,0,0,1,.06-.16c.08-.09.15-.07.14,0C84.26,45.15,84.39,45.47,84.12,45.71Z"/><path class="cls-2" d="M31.41,38.63A9.85,9.85,0,0,1,34.86,32c1.35-1.2,3.15-1.31,4.89-1.2.68,0,1.09.65,1.34,1.25,1.17,2.72,2.31,5.45,3.45,8.18a1.58,1.58,0,0,1-.1,1.29A12,12,0,0,1,42,44.81c-.83.91-.88,1.24-.25,2.28A26.74,26.74,0,0,0,55.15,58.45a1.52,1.52,0,0,0,2-.48c1-1.22,2-2.41,2.95-3.65a1.47,1.47,0,0,1,1.89-.63c2.91,1.14,5.67,2.6,8.47,4a1,1,0,0,1,.53.95c0,2.43-.39,4.7-2.47,6.33a11.58,11.58,0,0,1-6.07,2.49c-3.31.37-6.14-1.06-9.08-2.07-7.1-2.43-12.3-7.32-16.69-13.21a29.66,29.66,0,0,1-4.41-7.35,12,12,0,0,1-.8-3.13A6.06,6.06,0,0,0,31.41,38.63Z"/><path class="cls-2" d="M31.41,38.63a6.06,6.06,0,0,1,0,3A11.54,11.54,0,0,1,31.41,38.63Z"/></svg>