<svg id="Capa_1" data-name="Capa 1" xmlns="http://www.w3.org/2000/svg" viewBox="0 0 140 90"><defs><style>.cls-1{fill:#090a0a;}.cls-2{fill:#0f0f10;}.cls-3{fill:#121213;}</style></defs><path class="cls-1" d="M32.74,35.45c0-3.65,0-7.3,0-11,0-.61.17-.76.75-.73,1.08,0,2.17.05,3.25,0,.64,0,.85.12.84.81,0,6.65,0,13.29,0,19.94,0,4.12,1.83,6.63,5.79,7.92a12.41,12.41,0,0,0,3.78.56h5.74c1.18,0,1.16,0,1.18,1.22a8.48,8.48,0,0,0,.25,2.83,6.75,6.75,0,0,0,7.93,4.32,4.62,4.62,0,0,0,2.31-1.49,19.55,19.55,0,0,1,2.31-2.06,8.85,8.85,0,0,1,11,.58c.67.58,1.28,1.21,1.93,1.81a4.12,4.12,0,0,0,6,.08c.76-.67,1.45-1.4,2.22-2A8.75,8.75,0,0,1,99,58.09c.87.68,1.64,1.49,2.46,2.23a4.11,4.11,0,0,0,5.84,0,21.47,21.47,0,0,1,3.32-2.84,8.85,8.85,0,0,1,10.15.76c.83.69,1.6,1.46,2.39,2.2a3.88,3.88,0,0,0,2.66,1.09c1.51,0,3,0,4.53,0a2.44,2.44,0,0,0,2.11-2.81c-.11-1.05-.36-2.08-.55-3.11l-3.09-16c-.54-2.79-1.07-5.58-1.64-8.36a6.32,6.32,0,0,1,1.48-6,4,4,0,0,1,3-1.3c1.81,0,3.62,0,5.43,0,.47,0,.61.11.6.58q-.06,1.82,0,3.63c0,.47-.15.59-.6.58-1,0-2,0-3,0a2.44,2.44,0,0,0-2.53,2.5,23.4,23.4,0,0,0,.67,4.24c1.13,6.18,2.3,12.35,3.45,18.53l1.08,5.78A5.92,5.92,0,0,1,135.29,65a3.53,3.53,0,0,1-2.87,1.23c-2.29,0-4.58-.08-6.87,0a7.69,7.69,0,0,1-5.49-2.09c-.73-.62-1.39-1.32-2.1-2a4.08,4.08,0,0,0-5.56,0c-.78.67-1.49,1.42-2.27,2.09a8.6,8.6,0,0,1-5.45,2,9.07,9.07,0,0,1-7.14-2.95c-.4-.42-.82-.81-1.26-1.19a4,4,0,0,0-5.37-.05A25.35,25.35,0,0,0,89,63.86c-3.13,3.24-9.43,3.21-12.5-.09-.53-.56-1.12-1.09-1.7-1.6a4.08,4.08,0,0,0-5.67,0,18.08,18.08,0,0,1-4,3.22,6.32,6.32,0,0,1-3,.76,21.36,21.36,0,0,1-3.92-.13,11.07,11.07,0,0,1-8.77-8.74c-.13-.53-.29-.68-.81-.66a18.63,18.63,0,0,1-8.48-1.34c-3.2-1.4-5.74-3.45-7-6.87a8.27,8.27,0,0,1-.43-3C32.75,42.14,32.74,38.8,32.74,35.45Z"/><path class="cls-1" d="M2.31,40.22c0-5.24,0-10.47,0-15.7,0-.6.16-.76.76-.75,2.26,0,4.53,0,6.79,0a7.59,7.59,0,0,1,5.65,2.41,4.45,4.45,0,0,1,1.25,3.13c0,1.06,0,2.12,0,3.17a4.77,4.77,0,0,1-1.47,3.73c-.24.24-.39.38,0,.7a4.8,4.8,0,0,1,1.52,3.85c0,3.17,0,6.34,0,9.51a5.74,5.74,0,0,1-4.58,6,8.6,8.6,0,0,1-2.37.35c-2.27,0-4.53,0-6.79,0-.57,0-.71-.14-.71-.7q0-7.89,0-15.77Zm4.81,5.46v6.71c0,.29-.07.64.41.62a15.33,15.33,0,0,0,2.71-.1,1.91,1.91,0,0,0,1.67-2q0-5.16,0-10.33a1.94,1.94,0,0,0-1.68-2.06,15.79,15.79,0,0,0-2.48-.12c-.49,0-.64.13-.64.64C7.14,41.26,7.12,43.47,7.12,45.68Zm0-14.58h0c0,1.06,0,2.11,0,3.17,0,.39.12.52.52.51.62,0,1.25,0,1.88,0a2.2,2.2,0,0,0,2.4-2.51c0-.87,0-1.75,0-2.63a2,2,0,0,0-2-2.1c-.75-.05-1.5,0-2.26,0-.4,0-.51.12-.5.51C7.18,29,7.16,30.07,7.16,31.1Z"/><path class="cls-1" d="M54.33,37.56c0,2.44-.09,4.88,0,7.32.13,3-1.54,4.71-3.83,5.69A8.67,8.67,0,0,1,41.28,49a4.56,4.56,0,0,1-1.39-3.32c0-5.43,0-10.86,0-16.3a4.9,4.9,0,0,1,3-4.47,8.58,8.58,0,0,1,9.31.53,4.81,4.81,0,0,1,2.17,4.23C54.31,32.28,54.33,34.92,54.33,37.56Zm-9.63-.07c0,2.65,0,5.29,0,7.93,0,1.3.94,2.09,2.41,2.09s2.39-.79,2.39-2.11V29.62c0-1.33-.89-2.11-2.37-2.12s-2.43.79-2.43,2.14Z"/><path class="cls-2" d="M55.26,40.14c0-5.21,0-10.41,0-15.62,0-.64.18-.79.8-.78,1.61.05,3.22,0,4.83,0a5.35,5.35,0,0,1,5.3,5c.09,1.53,0,3.06,0,4.6a4.69,4.69,0,0,1-1,2.77c-.23.31-.29.52,0,.84a5.11,5.11,0,0,1,1.09,3.37c0,3.55,0,7.09,0,10.64a5.42,5.42,0,0,1-5.64,5.58c-1.51,0-3,0-4.52,0-.62,0-.81-.14-.8-.78,0-5.21,0-10.42,0-15.62Zm3.68,5.41h0v5.87c0,1.42,0,1.42,1.41,1.41s2.16-.62,2.16-2.13c0-3.14,0-6.28,0-9.42.06-2.39-.51-3.05-3-2.94-.51,0-.62.17-.62.65C59,41.17,58.94,43.36,58.94,45.55ZM59,31h0v1.88c0,1.85,0,1.85,1.83,1.75a1.72,1.72,0,0,0,1.73-1.73c0-1.26,0-2.52,0-3.77a1.63,1.63,0,0,0-1.45-1.67,16.58,16.58,0,0,0-1.73,0c-.37,0-.36.23-.36.5C59,29,59,30,59,31Z"/><path class="cls-1" d="M18.87,40.25c0-3.57.06-7.14,0-10.71a5.77,5.77,0,0,1,6-5.75,5.72,5.72,0,0,1,5.93,5.71q0,10.78,0,21.58a5.67,5.67,0,0,1-5.48,5.59c-3,.09-5.4-1.41-6.18-3.92a6.13,6.13,0,0,1-.24-1.86Zm7.88,0h0V29.7a2.23,2.23,0,0,0-.21-1.24,2.06,2.06,0,0,0-2.28-.92,1.85,1.85,0,0,0-1.42,2q0,5.2,0,10.41c0,3.62,0,7.24,0,10.87a1.93,1.93,0,0,0,1.1,2,2,2,0,0,0,2.84-1.76C26.7,47.46,26.75,43.86,26.75,40.27Z"/><path class="cls-2" d="M79.13,40.15c0-5.21,0-10.42,0-15.63,0-.63.17-.82.79-.77a19.69,19.69,0,0,1,2.18,0,11.72,11.72,0,0,0,2.37,0,5.37,5.37,0,0,1,5.62,5,41.52,41.52,0,0,1,0,4.6A4.82,4.82,0,0,1,89,36.12a.5.5,0,0,0,0,.76,5.27,5.27,0,0,1,1.12,3.44q0,7.17,0,14.35a.84.84,0,0,1-.58.92c-.82.31-1.41,1.1-2.46,1-.54-.08-.71-.16-.71-.73,0-5.14,0-10.27,0-15.4A2.05,2.05,0,0,0,86,39a1.85,1.85,0,0,0-2-.56,1.78,1.78,0,0,0-1.14,1.79V54.36c0,.53,0,1.06,0,1.58s-.16.61-.61.59c-.83,0-1.66,0-2.49,0-.55,0-.66-.17-.66-.68Q79.13,48,79.13,40.15ZM82.84,31h0c0,.63,0,1.26,0,1.89a1.71,1.71,0,0,0,1.77,1.75,1.75,1.75,0,0,0,1.77-1.76c0-1.23,0-2.46,0-3.69a1.73,1.73,0,0,0-1.77-1.76,1.75,1.75,0,0,0-1.77,1.77C82.82,29.82,82.84,30.42,82.84,31Z"/><path class="cls-2" d="M115.05,39.23c0-4.91,0-9.82,0-14.72,0-.57.09-.84.72-.76,1,.15,2.12-.2,3.17.22.3.11.73-.17,1.1-.2a5.34,5.34,0,0,1,5.91,4.87,17.48,17.48,0,0,1-.15,5.77c-.19.81-1,1.42-1,2.12s.82,1.27,1,2a7,7,0,0,1,.24,1.64c0,5.18,0,10.36,0,15.55,0,.58-.11.82-.74.77a14.21,14.21,0,0,0-2.26,0c-.65.06-.74-.21-.74-.77,0-5.09,0-10.17,0-15.26a3.32,3.32,0,0,0-.08-.89,1.76,1.76,0,0,0-3.45.6c0,4.78,0,9.56,0,14.34,0,.69-.12.81-.78.53a5.22,5.22,0,0,0-2.28-.41c-.6,0-.7-.19-.69-.73C115.06,49,115.05,44.14,115.05,39.23ZM122.31,31c0-.62,0-1.25,0-1.88a1.77,1.77,0,0,0-3.54-.05c0,1.31,0,2.61,0,3.92a1.72,1.72,0,0,0,1.81,1.63,1.74,1.74,0,0,0,1.73-1.73C122.33,32.3,122.31,31.67,122.31,31Z"/><path class="cls-3" d="M78.19,37.92c0,4.3,0,8.61,0,12.91a5.57,5.57,0,0,1-1.88,4.35.7.7,0,0,1-.86.15A8.94,8.94,0,0,0,69.62,55a.93.93,0,0,1-1.09-.34A5.34,5.34,0,0,1,67.22,51q0-13.32,0-26.64c0-.46.11-.63.58-.61.86,0,1.72,0,2.57,0,.44,0,.56.13.55.55,0,1,0,2,0,2.94V50.72a1.84,1.84,0,0,0,1.53,2.09,1.72,1.72,0,0,0,2-1.62c0-.35,0-.71,0-1.06,0-8.51,0-17,0-25.52,0-.69.17-.92.87-.87a15.86,15.86,0,0,0,2.18,0c.53,0,.69.12.68.66,0,2.24,0,4.48,0,6.72v6.79Z"/><path class="cls-3" d="M91.11,40.11c0-3.57,0-7.14,0-10.72a5.44,5.44,0,0,1,5.68-5.63,5.52,5.52,0,0,1,5.27,5c.15,2.37.15,2.37-2.2,2.36-1.45,0-1.45,0-1.48-1.51,0-1.24-.6-2-1.6-2.1a1.76,1.76,0,0,0-2,1.86c0,2.14,0,4.28,0,6.42q0,7.55,0,15.09a1.79,1.79,0,0,0,1.08,1.83,1.72,1.72,0,0,0,1.9-.3,1.7,1.7,0,0,0,.6-1.33c0-4.08,0-8.16,0-12.23,0-.47-.24-.45-.56-.46-1.29,0-1.31,0-1.28-1.33,0-.77-.34-1.76.16-2.25s1.44-.11,2.19-.12,1.71,0,2.56,0c.44,0,.62.09.62.58,0,5.38,0,10.77,0,16.15A5.24,5.24,0,0,1,99,56a.65.65,0,0,1-.76,0,7.92,7.92,0,0,0-5-1.27A1.26,1.26,0,0,1,92,54a5.76,5.76,0,0,1-.85-3.23C91.12,47.21,91.11,43.66,91.11,40.11Z"/><path class="cls-2" d="M103.07,40.12c0-3.55.07-7.1,0-10.64A5.49,5.49,0,0,1,114,28.42c.09.73,0,1.46.08,2.19,0,.35-.12.5-.48.49-.91,0-1.81,0-2.72,0-.38,0-.54-.12-.52-.53a9.52,9.52,0,0,0,0-1.51,1.78,1.78,0,0,0-3.54,0c0,1.71,0,3.42,0,5.13,0,.41.21.44.52.44.86,0,1.71,0,2.57,0,.42,0,.58.12.56.56q0,1.32,0,2.64c0,.46-.18.54-.58.53-.83,0-1.66,0-2.49,0-.39,0-.59,0-.58.52,0,4,0,8.1,0,12.15a1.74,1.74,0,0,0,1.75,1.8,1.78,1.78,0,0,0,1.82-1.74v-.22c0-1.69,0-1.69,1.75-1.69,2,0,2,0,2,2A5.26,5.26,0,0,1,113,54.29a2.57,2.57,0,0,1-1.27,1,5.5,5.5,0,0,0-.94.47,4.84,4.84,0,0,1-6.29-1.07,5.4,5.4,0,0,1-1.4-3.72c0-3.62,0-7.24,0-10.86Z"/></svg>